# xmcd
#
# Track frame offsets:
#   150
#   13275
#   25780
#   37425
#   54662
#   66040
#   77837
#   93285
#   105557
#   118972
#   130442
#   139625
#   156987
#   170217
#   181384
#   192622
#   203584
#   221182
#   234140
#   251362
#   263187
#   275790
#
# Disc length: 3871 seconds
#
# Revision: 0
# Processed by: cddbd v1.5.2PL0 Copyright (c) Steve Scherf et al.
# Submitted via: uFREEDB ActiveX Control 1.5
#
DISCID=520f1d16
DTITLE=Eli Silva e Ze Goiano - o machado e a moto-serra
DYEAR=1900
DGENRE=Country
TTITLE0=tela quente
TTITLE1=viola mulher
TTITLE2=o machado e a motoserra
TTITLE3=fogo de viuva
TTITLE4=por dois olhos negros
TTITLE5=o esteio e o estorvo
TTITLE6=as flores do lago
TTITLE7=viola sagrada
TTITLE8=vestibular de viola
TTITLE9=vida de caboclo
TTITLE10=o mineiro perdeu seu trem
TTITLE11=o dedo de Deus
TTITLE12=canja de arroz
TTITLE13=chumbo grosso
TTITLE14=rainha da noite
TTITLE15=viola minha viola
TTITLE16=meu pequeno territorio
TTITLE17=convite caboclo
TTITLE18=saudade setaneja
TTITLE19=um pouco de voce
TTITLE20=saudade quanta saudade
TTITLE21=moradia de caboclo
EXTD=
EXTT0=
EXTT1=
EXTT2=
EXTT3=
EXTT4=
EXTT5=
EXTT6=
EXTT7=
EXTT8=
EXTT9=
EXTT10=
EXTT11=
EXTT12=
EXTT13=
EXTT14=
EXTT15=
EXTT16=
EXTT17=
EXTT18=
EXTT19=
EXTT20=
EXTT21=
PLAYORDER=
